<?xml version="1.0" encoding="UTF-8"?>
<svg width="142px" height="107px" viewBox="0 0 142 107" version="1.1" xmlns="http://www.w3.org/2000/svg" xmlns:xlink="http://www.w3.org/1999/xlink">
    <!-- Generator: Sketch 52.5 (67469) - http://www.bohemiancoding.com/sketch -->
    <title>logo</title>
    <desc>Created with Sketch.</desc>
    <g id="Page-1" stroke="none" stroke-width="1" fill="none" fill-rule="evenodd">
        <g id="logo" fill="#FFFFFF">
            <path d="M39.688,12.592 C42.943,13.89 46.402,14.983 46.244,19.698 C49.861,18.849 51.795,20.531 53.36,22.437 C58.055,19.848 68.213,17.585 72.789,21.895 C78.506,18.728 90.006,16.605 95.763,21.071 C101.488,16.716 112.874,19.071 117.115,23.263 C124.772,22.221 133.273,27.911 135.44,34.204 C135.989,35.818 135.306,37.476 135.711,39.127 C136.107,40.734 137.776,41.546 138.712,42.962 C141.356,46.962 143.114,55.487 139.268,58.546 C134.31,59.134 135.863,49.815 131.055,51.164 C128.116,51.993 130.875,56.739 130.788,59.37 C130.65,63.097 128.679,63.913 127.509,66.21 C130.001,69.786 128.281,74.278 125.862,76.611 C129.258,78.987 127.629,84.282 125.299,86.724 C126.202,90.299 124.042,92.372 123.4,94.944 C122.468,98.634 124,103.153 121.754,106.154 C119.587,106.219 115.484,106.349 112.999,105.88 C113.664,102.233 117.543,100.78 117.654,97.125 C117.726,94.73 115.736,93.456 116.278,90.285 C115.151,89.505 113.934,88.808 112.999,87.822 C108.709,91.196 108.947,99.098 105.068,102.861 C104.569,103.648 104.72,105.325 104.048,105.924 C100.964,105.45 97.512,107.007 95.294,105.656 C95.258,102.015 99.404,101.105 100.69,98.498 C101.745,96.367 101.07,93.954 102.612,91.661 C102.374,89.945 100.792,89.541 100.426,87.822 C100.015,85.995 101.023,84.214 100.964,82.354 C100.9,80.646 99.715,79.494 99.866,77.977 C94.354,80.628 85.513,83.763 79.345,79.617 C73.156,83.398 60.995,82.073 56.917,77.429 C56.585,80.759 54.597,82.395 54.732,86.18 C53.986,87.188 53.165,88.083 52.54,89.188 C52.334,92.742 53.346,96.328 52.54,99.59 C50.894,101.041 49.062,103.906 48.001,105.958 C45.42,106.031 42.762,106.069 40.231,106.02 C39.96,102.062 45.531,99.886 46.245,96.303 C46.666,94.169 45.983,91.175 44.598,89.47 C40.064,91.94 42.226,103.479 37.777,106.062 C35.261,106.186 31.679,105.923 28.19,106.062 C29.283,101.074 34.554,98.117 35.583,91.937 C35.807,90.525 36.366,88.488 36.119,87.282 C35.843,85.888 34.616,85.711 33.943,84.544 C33.58,83.948 33.746,83.02 33.39,82.356 C32.906,81.46 32.195,81.5 32.019,80.442 C27.436,79.051 22.945,75.953 22.439,70.322 C22.338,69.011 23.16,67.36 22.717,65.945 C22.282,64.536 20.343,64.111 18.894,62.387 C16.193,59.191 14.152,53.351 16.7,47.336 C15.449,44.535 15.687,40.008 17.254,37.758 C15.039,35.824 12.115,33.912 12.601,30.109 C9.719,28.56 7.2,28.532 3.281,29.004 C2.458,28.229 -0.005,25.361 3.99680289e-15,23.534 C0.027,20.553 3.398,20.002 5.49,17.521 C6.515,16.279 8.173,14.001 8.49,12.318 C8.726,11.038 8.118,9.98 8.22,9.031 C8.49,6.266 10.406,3.654 13.699,3.838 C15.772,1.756 18.631,-0.866 23.272,0.279 C25.169,0.761 26.405,2.52 28.455,3.013 C29.634,3.295 30.934,2.8 32.017,3.013 C36.838,3.968 38.333,8.679 39.688,12.592 Z" id="Path"></path>
        </g>
    </g>
</svg>