<?xml version="1.0" encoding="utf-8"?>
<!DOCTYPE svg PUBLIC "-//W3C//DTD SVG 1.1//EN" "http://www.w3.org/Graphics/SVG/1.1/DTD/svg11.dtd">
<svg version="1.1" id="Layer_1" xmlns="http://www.w3.org/2000/svg" xmlns:xlink="http://www.w3.org/1999/xlink" x="0px" y="0px"
	 width="141.497px" height="106.224px" viewBox="0 0 141.497 106.224" enable-background="new 0 0 141.497 106.224"
	 xml:space="preserve">
<g>
	<g>
		<path fill-rule="evenodd" clip-rule="evenodd" fill="#1D1D1B" d="M39.688,12.592c3.255,1.298,6.714,2.391,6.556,7.106
			c3.617-0.849,5.551,0.833,7.116,2.739c4.695-2.589,14.853-4.852,19.429-0.542c5.717-3.167,17.217-5.29,22.974-0.824
			c5.725-4.355,17.111-2,21.352,2.192c7.657-1.042,16.158,4.648,18.325,10.941c0.549,1.614-0.134,3.272,0.271,4.923
			c0.396,1.607,2.065,2.419,3.001,3.835c2.644,4,4.402,12.525,0.556,15.584c-4.958,0.588-3.405-8.731-8.213-7.382
			c-2.939,0.829-0.18,5.575-0.267,8.206c-0.138,3.727-2.109,4.543-3.279,6.84c2.492,3.576,0.772,8.068-1.647,10.401
			c3.396,2.376,1.767,7.671-0.563,10.113c0.903,3.575-1.257,5.648-1.899,8.22c-0.932,3.69,0.6,8.209-1.646,11.21
			c-2.167,0.065-6.27,0.195-8.755-0.274c0.665-3.647,4.544-5.1,4.655-8.755c0.072-2.395-1.918-3.669-1.376-6.84
			c-1.127-0.78-2.344-1.477-3.279-2.463c-4.29,3.374-4.052,11.276-7.931,15.039c-0.499,0.787-0.348,2.464-1.02,3.063
			c-3.084-0.474-6.536,1.083-8.754-0.268c-0.036-3.641,4.11-4.551,5.396-7.158c1.055-2.131,0.38-4.544,1.922-6.837
			c-0.238-1.716-1.82-2.12-2.186-3.839c-0.411-1.827,0.597-3.608,0.538-5.468c-0.064-1.708-1.249-2.86-1.098-4.377
			c-5.512,2.651-14.353,5.786-20.521,1.64c-6.189,3.781-18.35,2.456-22.428-2.188c-0.332,3.33-2.32,4.966-2.185,8.751
			c-0.746,1.008-1.567,1.903-2.192,3.008c-0.206,3.554,0.806,7.14,0,10.402c-1.646,1.451-3.478,4.316-4.539,6.368
			c-2.581,0.073-5.239,0.111-7.77,0.062c-0.271-3.958,5.3-6.134,6.014-9.717c0.421-2.134-0.262-5.128-1.647-6.833
			c-4.534,2.47-2.372,14.009-6.821,16.592c-2.516,0.124-6.098-0.139-9.587,0c1.093-4.988,6.364-7.945,7.393-14.125
			c0.224-1.412,0.783-3.449,0.536-4.655c-0.276-1.394-1.503-1.571-2.176-2.738c-0.363-0.596-0.197-1.524-0.553-2.188
			c-0.484-0.896-1.195-0.856-1.371-1.914c-4.583-1.391-9.074-4.489-9.58-10.12c-0.101-1.311,0.721-2.962,0.278-4.377
			c-0.435-1.409-2.374-1.834-3.823-3.558c-2.701-3.196-4.742-9.036-2.194-15.051c-1.251-2.801-1.013-7.328,0.554-9.578
			c-2.215-1.934-5.139-3.846-4.653-7.649c-2.882-1.549-5.401-1.577-9.32-1.105C2.458,28.229-0.005,25.361,0,23.534
			c0.027-2.981,3.398-3.532,5.49-6.013c1.025-1.242,2.683-3.52,3-5.203c0.236-1.28-0.372-2.338-0.27-3.287
			c0.27-2.765,2.186-5.377,5.479-5.193c2.073-2.082,4.932-4.704,9.573-3.559c1.897,0.482,3.133,2.241,5.183,2.734
			c1.179,0.282,2.479-0.213,3.562,0C36.838,3.968,38.333,8.679,39.688,12.592z"/>
	</g>
</g>
</svg>
